<svg id="Layer_1" data-name="Layer 1" xmlns="http://www.w3.org/2000/svg" width="500" height="500" viewBox="0 0 500 500"><title>icon</title><g id="_Group_" data-name="&lt;Group&gt;"><polygon points="229.28 303.39 237.03 394.29 53.68 444.77 61.82 349.53 229.28 303.39" fill="#d3eee4"/><polygon points="216.01 154 216.52 154 221.49 212.54 69.95 254.33 78.51 154 147 154 216.01 154" fill="#d3eee4"/><polygon points="221.49 212.54 229.28 303.39 61.82 349.53 69.95 254.33 221.49 212.54" fill="#ff8875"/><polygon points="237.03 394.29 245.51 493.54 49.53 493.54 53.68 444.77 237.03 394.29" fill="#ff8875"/><path d="M215.5,75.34h-137c0-38,30.65-68.88,68.49-68.88S215.5,37.31,215.5,75.34Z" fill="#ff8875"/><path d="M466.05,23.13c15.2,0,27.52,40.06,27.52,89.47s-12.33,89.47-27.52,89.47a9.11,9.11,0,0,1-4.41-1.17h0a16.12,16.12,0,0,1-3.38-2.54,19.65,19.65,0,0,1-1.76-1.89,12.84,12.84,0,0,1-1.11-1.42,38,38,0,0,1-2.83-4.57c-.34-.6-.69-1.29-1-2a86,86,0,0,1-5.05-13.27c-.26-.82-.51-1.64-.73-2.45-.3-1-.6-2.15-.86-3.28-.56-2.2-1.11-4.48-1.58-6.89s-1-4.83-1.37-7.37c-.21-1.25-.43-2.5-.64-3.79s-.34-2.37-.46-3.58c-.13-.82-.22-1.64-.3-2.5-.26-2-.51-4.09-.69-6.2-.13-1.38-.25-2.8-.38-4.22-.09-1.25-.17-2.54-.26-3.84,0-.73-.08-1.46-.13-2.24-.09-1.29-.17-2.63-.21-4s-.09-2.71-.13-4.05q-.13-4.07-.13-8.27c0-2.76,0-5.51.13-8.23,0-1.33.08-2.71.13-4s.13-2.63.21-4a225,225,0,0,1,5-37.31c.26-1.17.52-2.28.82-3.36q.9-3.62,1.93-6.85c.56-1.81,1.16-3.53,1.76-5.17.3-.82.6-1.64.94-2.41s.6-1.51.94-2.24.64-1.46,1-2.15.69-1.33,1-2a39.7,39.7,0,0,1,2.14-3.58c.38-.56.77-1.12,1.11-1.64s.73-.9,1.11-1.33A14.84,14.84,0,0,1,458,27.1a15.1,15.1,0,0,1,3.55-2.71A9.22,9.22,0,0,1,466.05,23.13Z" fill="#d3eee4"/><path d="M461.6,200.91,216,136.6l-68.54-18v-8.83L216,91.15,461.43,24.38A14,14,0,0,0,458,27.1a8.09,8.09,0,0,0-1.16,1.25,17,17,0,0,0-1.11,1.33c-.34.52-.73,1.08-1.11,1.64a26.17,26.17,0,0,0-2.14,3.58,18.14,18.14,0,0,0-1,2c-.34.69-.69,1.42-1,2.15a21.16,21.16,0,0,0-.94,2.24c-.34.77-.64,1.59-.94,2.41-.64,1.64-1.2,3.36-1.76,5.17q-1,3.23-1.93,6.85c-.3,1.08-.56,2.2-.82,3.36a225,225,0,0,0-5,37.31c-.09,1.29-.17,2.63-.21,4s-.09,2.67-.13,4c-.09,2.72-.13,5.47-.13,8.23s0,5.56.13,8.27c0,1.38.08,2.71.13,4.05s.13,2.67.21,4c0,.77.08,1.51.13,2.24.09,1.3.17,2.59.26,3.84.13,1.42.26,2.84.38,4.22.17,2.11.43,4.18.69,6.2.08.86.17,1.68.3,2.5.13,1.21.3,2.37.46,3.58s.39,2.54.64,3.79c.39,2.54.86,5,1.37,7.37s1,4.69,1.58,6.89c.26,1.12.56,2.24.86,3.28.21.86.47,1.68.73,2.45a86,86,0,0,0,5.05,13.27,16.68,16.68,0,0,0,1,2,38,38,0,0,0,2.83,4.57c.38.52.73,1,1.11,1.42a19.65,19.65,0,0,0,1.76,1.89A14.78,14.78,0,0,0,461.6,200.91Z" fill="#06c7ca"/><rect x="72.09" y="75.34" width="12.84" height="78.66" fill="#18252f"/><polygon points="71.64 260.56 68.25 248.1 219.79 206.31 223.19 218.78 71.64 260.56" fill="#18252f"/><polygon points="63.51 355.76 60.12 343.3 227.59 297.16 230.98 309.63 63.51 355.76" fill="#18252f"/><polygon points="55.38 451.01 51.99 438.54 235.34 388.05 238.72 400.52 55.38 451.01" fill="#18252f"/><path d="M239.11,494.09,210.63,160.46H84.4L55.93,494.09,43.13,493l29-339.54a6.44,6.44,0,0,1,6.4-5.91h138a6.43,6.43,0,0,1,6.4,5.91L251.9,493Z" fill="#18252f"/><rect x="209.59" y="75.34" width="12.84" height="15.81" fill="#18252f"/><rect x="209.59" y="136.6" width="12.84" height="17.4" fill="#18252f"/><rect x="140.58" y="75.34" width="12.84" height="78.66" fill="#18252f"/><rect y="487.08" width="294.99" height="12.92" fill="#18252f"/><path d="M215.5,81.8h-137a6.44,6.44,0,0,1-6.42-6.46C72.09,33.8,105.7,0,147,0s74.91,33.8,74.91,75.34A6.44,6.44,0,0,1,215.5,81.8ZM85.26,68.88H208.74a62,62,0,0,0-123.48,0Z" fill="#18252f"/><rect x="260.83" y="106.14" width="43.23" height="12.92" fill="#fff"/><rect x="317.17" y="105.24" width="19.65" height="12.92" fill="#fff"/><rect x="354.54" y="106.14" width="49.1" height="12.92" fill="#fff"/><polygon points="414.89 157.02 385.35 151.12 387.85 138.45 417.39 144.34 414.89 157.02" fill="#fff"/><polygon points="374.97 84.83 372.98 72.06 398.2 68.1 400.18 80.86 374.97 84.83" fill="#fff"/><path d="M460.88,33.5l-10.36-7.64c.41-.57.87-1.11,1.33-1.63a14.36,14.36,0,0,1,1.65-1.79,20.36,20.36,0,0,1,4.9-3.76l6.06,11.4a7.64,7.64,0,0,0-1.86,1.49l-.36.35c-.13.18-.51.58-.66.76A9.38,9.38,0,0,0,460.88,33.5Z" fill="#18252f"/><path d="M455.57,43.33,443.4,39.21a26.93,26.93,0,0,1,1.23-2.93c.22-.57.63-1.46,1-2.29a21.27,21.27,0,0,1,1.13-2.19,33,33,0,0,1,2.57-4.25l10.43,7.54a19.94,19.94,0,0,0-1.61,2.69c-.08.15-.15.29-.23.43a11.8,11.8,0,0,0-.67,1.28c-.4.83-.68,1.41-.91,2C456,42.29,455.75,42.8,455.57,43.33Z" fill="#18252f"/><path d="M452.92,50.76l-12.27-3.82c.61-2,1.22-3.85,1.92-5.64l11.94,4.76C453.93,47.54,453.43,49.11,452.92,50.76Z" fill="#18252f"/><path d="M450.31,60.47l-12.53-2.82c.28-1.27.57-2.5.89-3.68l12.37,3.45C450.78,58.4,450.55,59.41,450.31,60.47Z" fill="#18252f"/><path d="M445.12,104.57l-12.83-.4.13-4.07c0-1.4.13-2.81.23-4.18l12.81.88c-.08,1.21-.16,2.47-.2,3.72Z" fill="#18252f"/><path d="M432.64,129.33c-.1-1.37-.18-2.79-.23-4.2l-.13-4.06,12.83-.4.13,4c0,1.27.12,2.53.2,3.74Z" fill="#18252f"/><polygon points="433.42 139.79 432.76 131.56 445.57 130.69 446.2 138.57 433.42 139.79" fill="#18252f"/><path d="M434.46,148.9c-.15-.95-.26-1.89-.35-2.89l12.78-1.25c.07.73.14,1.42.25,2.11Z" fill="#18252f"/><polygon points="435.57 156.32 434.94 152.54 447.59 150.38 448.24 154.18 435.57 156.32" fill="#18252f"/><path d="M438.64,171.1c-.59-2.31-1.17-4.7-1.66-7.24l12.6-2.5c.45,2.29,1,4.46,1.51,6.55Z" fill="#18252f"/><path d="M440.33,177.2c-.29-.92-.58-1.85-.82-2.78l12.42-3.29c.18.71.41,1.42.63,2.13Z" fill="#18252f"/><path d="M447,193.82a23.1,23.1,0,0,1-1.42-2.74l11.79-5.13a10.33,10.33,0,0,0,.63,1.22Z" fill="#18252f"/><path d="M451.67,200.78a19.16,19.16,0,0,1-1.66-2.14l10.69-7.17a6.51,6.51,0,0,0,.56.7Z" fill="#18252f"/><path d="M458.65,206.65a21,21,0,0,1-4.88-3.62l8.9-9.31a8.63,8.63,0,0,0,1.89,1.46Z" fill="#18252f"/><path d="M466.05,208.54a15.52,15.52,0,0,1-6.65-1.52L145.86,124.89a6.46,6.46,0,0,1-4.8-6.25v-8.83a6.45,6.45,0,0,1,4.74-6.24L459.28,18.27a15.52,15.52,0,0,1,6.78-1.6c22.29,0,33.95,48.26,33.95,95.93S488.34,208.54,466.05,208.54Zm-1.65-13.46.32.16a2.74,2.74,0,0,0,1.33.37c7.16,0,21.1-29.3,21.1-83s-13.94-83-21.1-83a2.93,2.93,0,0,0-1.4.43l-.12.07a8.87,8.87,0,0,0-2,1.57,7,7,0,0,0-.6.63l-.31.36c-.26.29-.48.56-.71.84l-1,1.5a33.23,33.23,0,0,0-1.76,2.94c-.32.6-.64,1.2-1,1.84-.16.33-.32.68-.48,1l-.42.94c-.3.63-.54,1.23-.79,1.87-.37.86-.59,1.48-.82,2.1-.63,1.72-1.2,3.34-1.72,5-.66,2.09-1.27,4.24-1.83,6.51-.31,1.13-.54,2.14-.78,3.2a220.34,220.34,0,0,0-4.86,36.26c-.09,1.32-.17,2.54-.21,3.81l-.13,4c-.08,2.65-.13,5.34-.13,8s0,5.42.13,8.06l.13,4c0,1.27.12,2.53.2,3.74l.76,10.13c.17,2.09.41,4.06.66,6,.1.93.17,1.62.28,2.31.14,1.27.27,2.16.4,3.08l.26,1.72c.12.77.24,1.52.4,2.28.42,2.72.87,5.05,1.35,7.3s.94,4.5,1.5,6.55c.29,1.25.56,2.25.83,3.17s.44,1.59.65,2.2a80.25,80.25,0,0,0,4.72,12.46c.28.57.56,1.14.84,1.63a33.11,33.11,0,0,0,2.42,3.94c.31.42.51.7.74,1a15.6,15.6,0,0,0,1.34,1.47A10.47,10.47,0,0,0,464.41,195.08ZM156,114.19,445,189.9a95.63,95.63,0,0,1-4.74-12.81c-.25-.72-.55-1.71-.81-2.74s-.6-2.14-.88-3.38c-.57-2.09-1.12-4.56-1.63-7.08s-1-5-1.42-7.66c-.14-.62-.29-1.57-.44-2.53l-.3-2c-.15-1.07-.3-2.12-.41-3.2-.1-.6-.21-1.55-.31-2.54-.25-1.92-.51-4.09-.69-6.31l-.76-10c-.11-1.71-.2-3.12-.24-4.54l-.13-4.05q-.14-4.16-.13-8.47c0-2.83,0-5.65.13-8.44l.13-4.06c0-1.39.13-2.76.22-4.16a230.34,230.34,0,0,1,5.15-38.33c.28-1.23.56-2.46.89-3.63.6-2.4,1.28-4.81,2-7.09.57-1.86,1.21-3.69,1.84-5.43.41-1.1.74-2,1.1-2.81.24-.64.6-1.5,1-2.37l.32-.71Z" fill="#18252f"/></g></svg>